Rokkitt Light-100.ufo
<glyph name="exclam" format="1">
  <advance width="150"/>
  <unicode hex="0021"/>
  <outline>
    <contour>
      <point x="52" y="1156" type="line"/>
      <point x="52" y="730" type="line"/>
      <point x="69" y="321" type="line"/>
      <point x="82" y="321" type="line"/>
      <point x="99" y="730" type="line"/>
      <point x="99" y="1156" type="line"/>
    </contour>
    <contour>
      <point x="50" y="54" type="line"/>
      <point x="50" y="0" type="line"/>
      <point x="100" y="0" type="line"/>
      <point x="100" y="54" type="line"/>
    </contour>
  </outline>
</glyph>
<glyph name="slash" format="1">
  <advance width="295"/>
  <unicode hex="002F"/>
  <outline>
    <contour>
      <point x="-36" y="-25" type="line"/>
      <point x="10" y="-25" type="line"/>
      <point x="318" y="1172" type="line"/>
      <point x="277" y="1172" type="line"/>
    </contour>
  </outline>
</glyph>
<glyph name="four" format="1">
  <advance width="964"/>
  <unicode hex="0034"/>
  <outline>
    <contour>
      <point x="450" y="0" type="line"/>
      <point x="782" y="0" type="line"/>
      <point x="782" y="34" type="line"/>
      <point x="637" y="34" type="line"/>
      <point x="637" y="370" type="line"/>
      <point x="857" y="370" type="line"/>
      <point x="857" y="404" type="line"/>
      <point x="637" y="404" type="line"/>
      <point x="637" y="1152" type="line"/>
      <point x="582" y="1152" type="line"/>
      <point x="113" y="408" type="line"/>
      <point x="122" y="370" type="line"/>
      <point x="593" y="370" type="line"/>
      <point x="593" y="34" type="line"/>
      <point x="450" y="34" type="line"/>
    </contour>
    <contour>
      <point x="159" y="404" type="line"/>
      <point x="593" y="1102" type="line"/>
      <point x="593" y="404" type="line"/>
    </contour>
  </outline>
</glyph>
<glyph name="eight" format="1">
  <advance width="964"/>
  <unicode hex="0038"/>
  <outline>
    <contour>
      <point x="152" y="887" type="curve" smooth="yes"/>
      <point x="152" y="750"/>
      <point x="238" y="642"/>
      <point x="374" y="606" type="curve"/>
      <point x="213" y="575"/>
      <point x="112" y="455"/>
      <point x="112" y="294" type="curve" smooth="yes"/>
      <point x="112" y="100"/>
      <point x="255" y="-22"/>
      <point x="482" y="-22" type="curve" smooth="yes"/>
      <point x="709" y="-22"/>
      <point x="852" y="100"/>
      <point x="852" y="294" type="curve" smooth="yes"/>
      <point x="852" y="456"/>
      <point x="751" y="576"/>
      <point x="591" y="606" type="curve"/>
      <point x="728" y="637"/>
      <point x="814" y="745"/>
      <point x="814" y="887" type="curve" smooth="yes"/>
      <point x="814" y="1064"/>
      <point x="686" y="1175"/>
      <point x="483" y="1174" type="curve" smooth="yes"/>
      <point x="280" y="1175"/>
      <point x="152" y="1064"/>
    </contour>
    <contour>
      <point x="810" y="294" type="curve" smooth="yes"/>
      <point x="810" y="122"/>
      <point x="683" y="14"/>
      <point x="482" y="14" type="curve" smooth="yes"/>
      <point x="281" y="14"/>
      <point x="154" y="122"/>
      <point x="154" y="294" type="curve" smooth="yes"/>
      <point x="154" y="473"/>
      <point x="281" y="586"/>
      <point x="483" y="587" type="curve" smooth="yes"/>
      <point x="684" y="586"/>
      <point x="810" y="473"/>
    </contour>
    <contour>
      <point x="772" y="887" type="curve" smooth="yes"/>
      <point x="772" y="724"/>
      <point x="661" y="624"/>
      <point x="483" y="627" type="curve"/>
      <point x="305" y="623"/>
      <point x="194" y="723"/>
      <point x="194" y="887" type="curve" smooth="yes"/>
      <point x="194" y="1041"/>
      <point x="305" y="1138"/>
      <point x="483" y="1138" type="curve" smooth="yes"/>
      <point x="661" y="1138"/>
      <point x="772" y="1041"/>
    </contour>
  </outline>
</glyph>
<glyph name="equal" format="1">
  <advance width="715"/>
  <unicode hex="003D"/>
  <outline>
    <contour>
      <point x="178" y="311" type="line"/>
      <point x="539" y="311" type="line"/>
      <point x="539" y="351" type="line"/>
      <point x="178" y="351" type="line"/>
    </contour>
    <contour>
      <point x="178" y="539" type="line"/>
      <point x="539" y="539" type="line"/>
      <point x="539" y="577" type="line"/>
      <point x="178" y="577" type="line"/>
    </contour>
  </outline>
</glyph>
<glyph name="question" format="1">
  <advance width="629"/>
  <unicode hex="003F"/>
  <outline>
    <contour>
      <point x="165" y="1174"/>
      <point x="54" y="1127"/>
      <point x="7" y="1052" type="curve"/>
      <point x="32" y="1026" type="line"/>
      <point x="70" y="1095"/>
      <point x="171" y="1138"/>
      <point x="295" y="1138" type="curve" smooth="yes"/>
      <point x="465" y="1138"/>
      <point x="571" y="1049"/>
      <point x="571" y="907" type="curve" smooth="yes"/>
      <point x="571" y="640"/>
      <point x="308" y="706"/>
      <point x="268" y="279" type="curve"/>
      <point x="288" y="279" type="line"/>
      <point x="352" y="690"/>
      <point x="607" y="619"/>
      <point x="607" y="907" type="curve" smooth="yes"/>
      <point x="607" y="1071"/>
      <point x="487" y="1174"/>
      <point x="295" y="1174" type="curve" smooth="yes"/>
    </contour>
    <contour>
      <point x="247" y="69"/>
      <point x="227" y="50"/>
      <point x="227" y="24" type="curve" smooth="yes"/>
      <point x="227" y="-3"/>
      <point x="247" y="-22"/>
      <point x="275" y="-22" type="curve" smooth="yes"/>
      <point x="305" y="-22"/>
      <point x="326" y="-3"/>
      <point x="326" y="24" type="curve" smooth="yes"/>
      <point x="326" y="50"/>
      <point x="305" y="69"/>
      <point x="275" y="69" type="curve"/>
    </contour>
  </outline>
</glyph>
<glyph name="G" format="1">
  <advance width="1394"/>
  <unicode hex="0047"/>
  <outline>
    <contour>
      <point x="707" y="-22" type="curve" smooth="yes"/>
      <point x="897" y="-22"/>
      <point x="1245" y="59"/>
      <point x="1245" y="543" type="curve"/>
      <point x="948" y="543" type="line"/>
      <point x="948" y="509" type="line"/>
      <point x="1203" y="509" type="line"/>
      <point x="1198" y="110"/>
      <point x="884" y="14"/>
      <point x="707" y="14" type="curve" smooth="yes"/>
      <point x="372" y="14"/>
      <point x="161" y="233"/>
      <point x="161" y="582" type="curve" smooth="yes"/>
      <point x="161" y="924"/>
      <point x="372" y="1138"/>
      <point x="707" y="1138" type="curve" smooth="yes"/>
      <point x="913" y="1138"/>
      <point x="1091" y="1034"/>
      <point x="1169" y="851" type="curve"/>
      <point x="1201" y="851" type="line"/>
      <point x="1201" y="1152" type="line"/>
      <point x="1157" y="1152" type="line"/>
      <point x="1157" y="945" type="line"/>
      <point x="1066" y="1093"/>
      <point x="892" y="1174"/>
      <point x="707" y="1174" type="curve" smooth="yes"/>
      <point x="346" y="1174"/>
      <point x="119" y="946"/>
      <point x="119" y="582" type="curve" smooth="yes"/>
      <point x="119" y="211"/>
      <point x="346" y="-22"/>
    </contour>
    <contour>
      <point x="707" y="1152" type="move" name="top"/>
    </contour>
    <contour>
      <point x="711" y="0" type="move" name="bot"/>
    </contour>
  </outline>
</glyph>
<glyph name="I" format="1">
  <advance width="626"/>
  <unicode hex="0049"/>
  <outline>
    <component base="uc_main_stem"/>
    <contour>
      <point x="316" y="1152" type="move" name="top"/>
    </contour>
    <contour>
      <point x="312" y="0" type="move" name="ogonek"/>
    </contour>
  </outline>
</glyph>
<glyph name="K" format="1">
  <advance width="1304"/>
  <unicode hex="004B"/>
  <outline>
    <contour>
      <point x="840" y="0" type="line"/>
      <point x="1215" y="0" type="line"/>
      <point x="1215" y="34" type="line"/>
      <point x="1052" y="34" type="line"/>
      <point x="408" y="588" type="line"/>
      <point x="1004" y="1118" type="line"/>
      <point x="1179" y="1118" type="line"/>
      <point x="1179" y="1152" type="line"/>
      <point x="794" y="1152" type="line"/>
      <point x="794" y="1118" type="line"/>
      <point x="954" y="1118" type="line"/>
      <point x="348" y="588" type="line"/>
      <point x="997" y="34" type="line"/>
      <point x="840" y="34" type="line"/>
    </contour>
    <component base="uc_main_stem" xOffset="16"/>
    <contour>
      <point x="663" y="1152" type="move" name="top"/>
    </contour>
    <contour>
      <point x="685" y="0" type="move" name="bot"/>
    </contour>
  </outline>
</glyph>
<glyph name="N" format="1">
  <advance width="1444"/>
  <unicode hex="004E"/>
  <outline>
    <contour>
      <point x="140" y="0" type="line"/>
      <point x="477" y="0" type="line"/>
      <point x="477" y="34" type="line"/>
      <point x="328" y="34" type="line"/>
      <point x="328" y="1073" type="line"/>
      <point x="1194" y="0" type="line"/>
      <point x="1238" y="0" type="line"/>
      <point x="1238" y="1118" type="line"/>
      <point x="1361" y="1118" type="line"/>
      <point x="1361" y="1152" type="line"/>
      <point x="1043" y="1152" type="line"/>
      <point x="1043" y="1118" type="line"/>
      <point x="1194" y="1118" type="line"/>
      <point x="1194" y="63" type="line"/>
      <point x="318" y="1152" type="line"/>
      <point x="140" y="1152" type="line"/>
      <point x="140" y="1118" type="line"/>
      <point x="284" y="1118" type="line"/>
      <point x="284" y="34" type="line"/>
      <point x="140" y="34" type="line"/>
    </contour>
    <contour>
      <point x="721" y="1152" type="move" name="top"/>
    </contour>
    <contour>
      <point x="711" y="0" type="move" name="bot"/>
    </contour>
  </outline>
</glyph>
<glyph name="R" format="1">
  <advance width="1296"/>
  <unicode hex="0052"/>
  <outline>
    <contour>
      <point x="1000" y="0" type="line"/>
      <point x="1198" y="0" type="line"/>
      <point x="1198" y="34" type="line"/>
      <point x="1029" y="34" type="line"/>
      <point x="711" y="539" type="line"/>
      <point x="996" y="539"/>
      <point x="1078" y="698"/>
      <point x="1078" y="845" type="curve" smooth="yes"/>
      <point x="1078" y="988"/>
      <point x="995" y="1152"/>
      <point x="759" y="1152" type="curve" smooth="yes"/>
      <point x="327" y="1152" type="line"/>
      <point x="327" y="1118" type="line"/>
      <point x="764" y="1118" type="line" smooth="yes"/>
      <point x="971" y="1118"/>
      <point x="1036" y="973"/>
      <point x="1036" y="845" type="curve" smooth="yes"/>
      <point x="1036" y="727"/>
      <point x="978" y="573"/>
      <point x="702" y="573" type="curve" smooth="yes"/>
      <point x="419" y="573" type="line"/>
      <point x="419" y="539" type="line"/>
      <point x="661" y="539" type="line"/>
    </contour>
    <component base="uc_main_stem" xOffset="16"/>
    <contour>
      <point x="658" y="1152" type="move" name="top"/>
    </contour>
    <contour>
      <point x="719" y="0" type="move" name="bot"/>
    </contour>
  </outline>
</glyph>
<glyph name="backslash" format="1">
  <advance width="296"/>
  <unicode hex="005C"/>
  <outline>
    <contour>
      <point x="272" y="-25" type="line"/>
      <point x="320" y="-25" type="line"/>
      <point x="7" y="1172" type="line"/>
      <point x="-35" y="1172" type="line"/>
    </contour>
  </outline>
</glyph>
<glyph name="asciicircum" format="1">
  <advance width="911"/>
  <unicode hex="005E"/>
  <outline>
    <contour>
      <point x="70" y="823" type="line"/>
      <point x="113" y="823" type="line"/>
      <point x="463" y="1244" type="line"/>
      <point x="795" y="823" type="line"/>
      <point x="836" y="823" type="line"/>
      <point x="492" y="1289" type="line"/>
      <point x="434" y="1289" type="line"/>
    </contour>
  </outline>
</glyph>
<glyph name="b" format="1">
  <advance width="1037"/>
  <unicode hex="0062"/>
  <outline>
    <component base="lc_ascender_stem_1" xOffset="-28"/>
    <component base="lc_bowl_right" xOffset="-51"/>
    <contour>
      <point x="599" y="804" type="move" name="top"/>
    </contour>
  </outline>
</glyph>
<glyph name="c" format="1">
  <advance width="956"/>
  <unicode hex="0063"/>
  <outline>
    <contour>
      <point x="475" y="-22" type="curve" smooth="yes"/>
      <point x="615" y="-22"/>
      <point x="715" y="19"/>
      <point x="808" y="114" type="curve"/>
      <point x="809" y="154" type="line"/>
      <point x="708" y="53"/>
      <point x="616" y="13"/>
      <point x="479" y="12" type="curve" smooth="yes"/>
      <point x="260" y="10"/>
      <point x="105" y="173"/>
      <point x="105" y="403" type="curve" smooth="yes"/>
      <point x="105" y="631"/>
      <point x="264" y="792"/>
      <point x="488" y="792" type="curve" smooth="yes"/>
      <point x="631" y="792"/>
      <point x="746" y="703"/>
      <point x="765" y="578" type="curve"/>
      <point x="803" y="578" type="line"/>
      <point x="803" y="804" type="line"/>
      <point x="759" y="804" type="line"/>
      <point x="757" y="694" type="line"/>
      <point x="716" y="771"/>
      <point x="604" y="826"/>
      <point x="487" y="826" type="curve" smooth="yes"/>
      <point x="239" y="826"/>
      <point x="63" y="652"/>
      <point x="63" y="405" type="curve" smooth="yes"/>
      <point x="63" y="155"/>
      <point x="234" y="-22"/>
    </contour>
    <contour>
      <point x="482" y="805" type="move" name="top"/>
    </contour>
    <contour>
      <point x="438" y="0" type="move" name="bot"/>
    </contour>
  </outline>
</glyph>
<glyph name="d" format="1">
  <advance width="1011"/>
  <unicode hex="0064"/>
  <outline>
    <component base="lc_ascender_stem_2" xOffset="562"/>
    <component base="lc_bowl_left" xOffset="-74"/>
    <contour>
      <point x="817" y="969" type="move" name="mid"/>
    </contour>
  </outline>
</glyph>
<glyph name="g" format="1">
  <advance width="1013"/>
  <unicode hex="0067"/>
  <outline>
    <contour>
      <point x="477" y="-374" type="curve" smooth="yes"/>
      <point x="710" y="-374"/>
      <point x="848" y="-261"/>
      <point x="848" y="-17" type="curve" smooth="yes"/>
      <point x="848" y="770" type="line"/>
      <point x="984" y="770" type="line"/>
      <point x="984" y="804" type="line"/>
      <point x="804" y="804" type="line"/>
      <point x="804" y="683" type="line"/>
      <point x="804" y="-31" type="line" smooth="yes"/>
      <point x="804" y="-220"/>
      <point x="701" y="-340"/>
      <point x="480" y="-340" type="curve" smooth="yes"/>
      <point x="405" y="-340"/>
      <point x="314" y="-326"/>
      <point x="200" y="-294" type="curve"/>
      <point x="193" y="-328" type="line"/>
      <point x="298" y="-355"/>
      <point x="394" y="-374"/>
    </contour>
    <component base="lc_bowl_left" xOffset="-74" yOffset="15" yScale="0.98"/>
    <contour>
      <point x="486" y="804" type="move" name="top"/>
    </contour>
  </outline>
</glyph>
<glyph name="i" format="1">
  <advance width="496"/>
  <unicode hex="0069"/>
  <outline>
    <contour>
      <point x="225" y="1095" type="curve" smooth="yes"/>
      <point x="225" y="1078"/>
      <point x="241" y="1050"/>
      <point x="272" y="1050" type="curve" smooth="yes"/>
      <point x="308" y="1050"/>
      <point x="322" y="1078"/>
      <point x="322" y="1095" type="curve" smooth="yes"/>
      <point x="322" y="1114"/>
      <point x="308" y="1140"/>
      <point x="272" y="1140" type="curve"/>
      <point x="241" y="1140"/>
      <point x="225" y="1114"/>
    </contour>
    <component base="lc_xheight_stem" xOffset="-9"/>
    <contour>
      <point x="283" y="0" type="move" name="ogonek"/>
    </contour>
  </outline>
</glyph>
<glyph name="j" format="1">
  <advance width="401"/>
  <unicode hex="006A"/>
  <outline>
    <contour>
      <point x="71" y="805" type="line"/>
      <point x="71" y="771" type="line"/>
      <point x="232" y="771" type="line"/>
      <point x="232" y="-39" type="line" smooth="yes"/>
      <point x="232" y="-152"/>
      <point x="236" y="-206"/>
      <point x="93" y="-206" type="curve" smooth="yes"/>
      <point x="30" y="-206" type="line"/>
      <point x="30" y="-240" type="line"/>
      <point x="102" y="-240" type="line" smooth="yes"/>
      <point x="300" y="-240"/>
      <point x="276" y="-101"/>
      <point x="276" y="-34" type="curve" smooth="yes"/>
      <point x="276" y="805" type="line"/>
    </contour>
    <contour>
      <point x="193" y="1095" type="curve" smooth="yes"/>
      <point x="193" y="1078"/>
      <point x="209" y="1050"/>
      <point x="240" y="1050" type="curve" smooth="yes"/>
      <point x="276" y="1050"/>
      <point x="290" y="1078"/>
      <point x="290" y="1095" type="curve" smooth="yes"/>
      <point x="290" y="1114"/>
      <point x="276" y="1140"/>
      <point x="240" y="1140" type="curve"/>
      <point x="209" y="1140"/>
      <point x="193" y="1114"/>
    </contour>
  </outline>
</glyph>
<glyph name="n" format="1">
  <advance width="1010"/>
  <unicode hex="006E"/>
  <outline>
    <component base="lc_xheight_curved_stem" xOffset="-81"/>
    <component base="lc_xheight_stem" xOffset="-59"/>
    <contour>
      <point x="596" y="804" type="move" name="top"/>
    </contour>
    <contour>
      <point x="544" y="0" type="move" name="bot"/>
    </contour>
  </outline>
</glyph>
<glyph name="p" format="1">
  <advance width="1037"/>
  <unicode hex="0070"/>
  <outline>
    <component base="lc_bowl_right" xOffset="-51"/>
    <component base="lc_descender_stem" xOffset="-38"/>
    <contour>
      <point x="563" y="805" type="move" name="top"/>
    </contour>
  </outline>
</glyph>
<glyph name="q" format="1">
  <advance width="1049"/>
  <unicode hex="0071"/>
  <outline>
    <contour>
      <point x="658" y="-330" type="line"/>
      <point x="975" y="-330" type="line"/>
      <point x="975" y="-296" type="line"/>
      <point x="837" y="-296" type="line"/>
      <point x="837" y="770" type="line"/>
      <point x="966" y="770" type="line"/>
      <point x="966" y="804" type="line"/>
      <point x="799" y="804" type="line"/>
      <point x="793" y="684" type="line"/>
      <point x="793" y="-296" type="line"/>
      <point x="658" y="-296" type="line"/>
    </contour>
    <component base="lc_bowl_left" xOffset="-74"/>
  </outline>
</glyph>
<glyph name="t" format="1">
  <advance width="572"/>
  <unicode hex="0074"/>
  <outline>
    <contour>
      <point x="449" y="0" type="curve" smooth="yes"/>
      <point x="522" y="0" type="line"/>
      <point x="522" y="34" type="line"/>
      <point x="449" y="34" type="line" smooth="yes"/>
      <point x="301" y="34"/>
      <point x="239" y="82"/>
      <point x="239" y="219" type="curve" smooth="yes"/>
      <point x="239" y="770" type="line"/>
      <point x="478" y="770" type="line"/>
      <point x="479" y="804" type="line"/>
      <point x="239" y="804" type="line"/>
      <point x="239" y="1096" type="line"/>
      <point x="195" y="1084" type="line"/>
      <point x="195" y="804" type="line"/>
      <point x="41" y="804" type="line"/>
      <point x="41" y="770" type="line"/>
      <point x="195" y="770" type="line"/>
      <point x="195" y="216" type="line" smooth="yes"/>
      <point x="195" y="46"/>
      <point x="304" y="0"/>
    </contour>
    <contour>
      <point x="393" y="10" type="move" name="bot"/>
    </contour>
    <contour>
      <point x="238" y="495" type="move" name="mid"/>
    </contour>
    <contour>
      <point x="217" y="989" type="move" name="top"/>
    </contour>
  </outline>
</glyph>
<glyph name="u" format="1">
  <advance width="1025"/>
  <unicode hex="0075"/>
  <outline>
    <contour>
      <point x="443" y="-22" type="curve" smooth="yes"/>
      <point x="571" y="-22"/>
      <point x="681" y="30"/>
      <point x="785" y="101" type="curve"/>
      <point x="791" y="0" type="line"/>
      <point x="978" y="0" type="line"/>
      <point x="978" y="32" type="line"/>
      <point x="826" y="32" type="line"/>
      <point x="826" y="804" type="line"/>
      <point x="630" y="804" type="line"/>
      <point x="630" y="770" type="line"/>
      <point x="782" y="770" type="line"/>
      <point x="782" y="133" type="line"/>
      <point x="675" y="64"/>
      <point x="580" y="12"/>
      <point x="442" y="12" type="curve" smooth="yes"/>
      <point x="302" y="12"/>
      <point x="243" y="108"/>
      <point x="243" y="204" type="curve" smooth="yes"/>
      <point x="243" y="804" type="line"/>
      <point x="40" y="804" type="line"/>
      <point x="40" y="770" type="line"/>
      <point x="199" y="770" type="line"/>
      <point x="199" y="203" type="line" smooth="yes"/>
      <point x="199" y="130"/>
      <point x="238" y="-22"/>
    </contour>
    <contour>
      <point x="488" y="804" type="move" name="top"/>
    </contour>
    <contour>
      <point x="898" y="0" type="move" name="ogonek"/>
    </contour>
  </outline>
</glyph>
<glyph name="asciitilde" format="1">
  <advance width="708"/>
  <unicode hex="007E"/>
  <outline>
    <contour>
      <point x="633" y="620" type="line"/>
      <point x="600" y="592"/>
      <point x="552" y="572"/>
      <point x="504" y="572" type="curve" smooth="yes"/>
      <point x="403" y="573"/>
      <point x="314" y="652"/>
      <point x="219" y="660" type="curve" smooth="yes"/>
      <point x="170" y="664"/>
      <point x="130" y="657"/>
      <point x="63" y="616" type="curve"/>
      <point x="63" y="572" type="line"/>
      <point x="113" y="606"/>
      <point x="162" y="624"/>
      <point x="215" y="619" type="curve" smooth="yes"/>
      <point x="302" y="611"/>
      <point x="378" y="534"/>
      <point x="500" y="532" type="curve" smooth="yes"/>
      <point x="560" y="531"/>
      <point x="591" y="545"/>
      <point x="633" y="576" type="curve"/>
    </contour>
  </outline>
</glyph>
<glyph name="brokenbar" format="1">
  <advance width="418"/>
  <unicode hex="00A6"/>
  <outline>
    <contour>
      <point x="184" y="-26" type="line"/>
      <point x="231" y="-26" type="line"/>
      <point x="231" y="544" type="line"/>
      <point x="184" y="544" type="line"/>
    </contour>
    <contour>
      <point x="184" y="725" type="line"/>
      <point x="231" y="725" type="line"/>
      <point x="231" y="1296" type="line"/>
      <point x="184" y="1296" type="line"/>
    </contour>
  </outline>
</glyph>
<glyph name="guillemotleft" format="1">
  <advance width="744"/>
  <unicode hex="00AB"/>
  <outline>
    <contour>
      <point x="327" y="309" type="line"/>
      <point x="356" y="309" type="line"/>
      <point x="143" y="686" type="line"/>
      <point x="356" y="1059" type="line"/>
      <point x="327" y="1059" type="line"/>
      <point x="63" y="686" type="line"/>
    </contour>
    <contour>
      <point x="560" y="309" type="line"/>
      <point x="589" y="309" type="line"/>
      <point x="374" y="686" type="line"/>
      <point x="589" y="1059" type="line"/>
      <point x="560" y="1059" type="line"/>
      <point x="295" y="686" type="line"/>
    </contour>
  </outline>
</glyph>
<glyph name="logicalnot" format="1">
  <advance width="827"/>
  <unicode hex="00AC"/>
  <outline>
    <contour>
      <point x="698" y="304" type="line"/>
      <point x="736" y="304" type="line"/>
      <point x="736" y="639" type="line"/>
      <point x="101" y="639" type="line"/>
      <point x="101" y="603" type="line"/>
      <point x="698" y="603" type="line"/>
    </contour>
  </outline>
</glyph>
<glyph name="threesuperior" format="1">
  <advance width="964"/>
  <unicode hex="00B3"/>
  <outline>
    <contour>
      <point x="375" y="1174"/>
      <point x="277" y="1121"/>
      <point x="234" y="1036" type="curve"/>
      <point x="263" y="1017" type="line"/>
      <point x="303" y="1093"/>
      <point x="389" y="1140"/>
      <point x="486" y="1140" type="curve" smooth="yes"/>
      <point x="616" y="1140"/>
      <point x="697" y="1070"/>
      <point x="697" y="959" type="curve" smooth="yes"/>
      <point x="697" y="859"/>
      <point x="604" y="797"/>
      <point x="456" y="797" type="curve" smooth="yes"/>
      <point x="396" y="797" type="line"/>
      <point x="396" y="761" type="line"/>
      <point x="458" y="761" type="line" smooth="yes"/>
      <point x="613" y="761"/>
      <point x="711" y="691"/>
      <point x="711" y="579" type="curve" smooth="yes"/>
      <point x="711" y="472"/>
      <point x="622" y="405"/>
      <point x="479" y="405" type="curve" smooth="yes"/>
      <point x="373" y="405"/>
      <point x="284" y="454"/>
      <point x="248" y="531" type="curve"/>
      <point x="218" y="509" type="line"/>
      <point x="257" y="423"/>
      <point x="357" y="369"/>
      <point x="478" y="369" type="curve" smooth="yes"/>
      <point x="647" y="369"/>
      <point x="753" y="451"/>
      <point x="753" y="581" type="curve" smooth="yes"/>
      <point x="753" y="687"/>
      <point x="674" y="764"/>
      <point x="547" y="780" type="curve"/>
      <point x="665" y="793"/>
      <point x="739" y="862"/>
      <point x="739" y="960" type="curve" smooth="yes"/>
      <point x="739" y="1091"/>
      <point x="642" y="1174"/>
      <point x="488" y="1174" type="curve" smooth="yes"/>
    </contour>
  </outline>
</glyph>
<glyph name="periodcentered" format="1">
  <advance width="453"/>
  <unicode hex="00B7"/>
  <outline>
    <contour>
      <point x="197" y="878" type="line"/>
      <point x="197" y="795" type="line"/>
      <point x="270" y="795" type="line"/>
      <point x="270" y="878" type="line"/>
    </contour>
    <contour>
      <point x="237" y="846" type="move" name="_mid"/>
    </contour>
  </outline>
</glyph>
<glyph name="onesuperior" format="1">
  <advance width="531"/>
  <unicode hex="00B9"/>
  <outline>
    <contour>
      <point x="135" y="1289" type="line"/>
      <point x="152" y="1240" type="line"/>
      <point x="252" y="1262" type="line"/>
      <point x="252" y="500" type="line"/>
      <point x="131" y="500" type="line"/>
      <point x="131" y="455" type="line"/>
      <point x="412" y="455" type="line"/>
      <point x="412" y="500" type="line"/>
      <point x="299" y="500" type="line"/>
      <point x="299" y="1324" type="line"/>
    </contour>
  </outline>
</glyph>
<glyph name="onequarter" format="1">
  <advance width="1395"/>
  <unicode hex="00BC"/>
  <outline>
    <contour>
      <point x="1088" y="0" type="line"/>
      <point x="1355" y="0" type="line"/>
      <point x="1355" y="34" type="line"/>
      <point x="1246" y="34" type="line"/>
      <point x="1246" y="262" type="line"/>
      <point x="1353" y="262" type="line"/>
      <point x="1353" y="296" type="line"/>
      <point x="1246" y="296" type="line"/>
      <point x="1246" y="804" type="line"/>
      <point x="1197" y="804" type="line"/>
      <point x="839" y="286" type="line"/>
      <point x="852" y="262" type="line"/>
      <point x="1208" y="262" type="line"/>
      <point x="1208" y="34" type="line"/>
      <point x="1088" y="34" type="line"/>
    </contour>
    <contour>
      <point x="113" y="366" type="line"/>
      <point x="394" y="366" type="line"/>
      <point x="394" y="400" type="line"/>
      <point x="272" y="400" type="line"/>
      <point x="272" y="1152" type="line"/>
      <point x="113" y="1152" type="line"/>
      <point x="114" y="1118" type="line"/>
      <point x="234" y="1118" type="line"/>
      <point x="234" y="400" type="line"/>
      <point x="113" y="400" type="line"/>
    </contour>
    <contour>
      <point x="339" y="0" type="line"/>
      <point x="381" y="0" type="line"/>
      <point x="1155" y="1152" type="line"/>
      <point x="1116" y="1152" type="line"/>
    </contour>
    <contour>
      <point x="890" y="296" type="line"/>
      <point x="1208" y="759" type="line"/>
      <point x="1208" y="296" type="line"/>
    </contour>
  </outline>
</glyph>
<glyph name="onehalf" format="1">
  <advance width="1591"/>
  <unicode hex="00BD"/>
  <outline>
    <contour>
      <point x="1128" y="1152" type="line"/>
      <point x="351" y="0" type="line"/>
      <point x="393" y="0" type="line"/>
      <point x="1167" y="1152" type="line"/>
    </contour>
    <contour>
      <point x="114" y="1152" type="line"/>
      <point x="115" y="1118" type="line"/>
      <point x="235" y="1118" type="line"/>
      <point x="235" y="400" type="line"/>
      <point x="114" y="400" type="line"/>
      <point x="114" y="366" type="line"/>
      <point x="395" y="366" type="line"/>
      <point x="395" y="400" type="line"/>
      <point x="273" y="400" type="line"/>
      <point x="273" y="1152" type="line"/>
    </contour>
    <contour>
      <point x="1171" y="824"/>
      <point x="1075" y="741"/>
      <point x="1075" y="601" type="curve" smooth="yes"/>
      <point x="1075" y="585"/>
      <point x="1079" y="540"/>
      <point x="1090" y="499" type="curve"/>
      <point x="1130" y="499" type="line"/>
      <point x="1120" y="537"/>
      <point x="1116" y="570"/>
      <point x="1116" y="599" type="curve" smooth="yes"/>
      <point x="1116" y="727"/>
      <point x="1201" y="790"/>
      <point x="1302" y="790" type="curve" smooth="yes"/>
      <point x="1415" y="790"/>
      <point x="1482" y="716"/>
      <point x="1482" y="616" type="curve" smooth="yes"/>
      <point x="1482" y="548"/>
      <point x="1451" y="468"/>
      <point x="1383" y="391" type="curve" smooth="yes"/>
      <point x="1065" y="32" type="line"/>
      <point x="1065" y="0" type="line"/>
      <point x="1537" y="0" type="line"/>
      <point x="1537" y="34" type="line"/>
      <point x="1116" y="34" type="line"/>
      <point x="1412" y="368" type="line" smooth="yes"/>
      <point x="1490" y="456"/>
      <point x="1524" y="543"/>
      <point x="1524" y="618" type="curve" smooth="yes"/>
      <point x="1524" y="738"/>
      <point x="1437" y="824"/>
      <point x="1302" y="824" type="curve" smooth="yes"/>
    </contour>
  </outline>
</glyph>
<glyph name="Thorn" format="1">
  <advance width="1226"/>
  <unicode hex="00DE"/>
  <outline>
    <contour>
      <point x="448" y="342" type="line"/>
      <point x="743" y="342" type="line" smooth="yes"/>
      <point x="937" y="342"/>
      <point x="1052" y="458"/>
      <point x="1052" y="654" type="curve" smooth="yes"/>
      <point x="1052" y="817"/>
      <point x="933" y="914"/>
      <point x="731" y="914" type="curve" smooth="yes"/>
      <point x="326" y="914" type="line"/>
      <point x="326" y="880" type="line"/>
      <point x="730" y="880" type="line" smooth="yes"/>
      <point x="904" y="880"/>
      <point x="1007" y="796"/>
      <point x="1008" y="653" type="curve" smooth="yes"/>
      <point x="1009" y="479"/>
      <point x="911" y="376"/>
      <point x="744" y="376" type="curve" smooth="yes"/>
      <point x="449" y="376" type="line"/>
    </contour>
    <component base="uc_main_stem" xOffset="16"/>
    <contour>
      <point x="680" y="1152" type="move" name="top"/>
    </contour>
  </outline>
</glyph>
<glyph name="divide" format="1">
  <advance width="712"/>
  <unicode hex="00F7"/>
  <outline>
    <contour>
      <point x="327" y="270" type="line"/>
      <point x="388" y="270" type="line"/>
      <point x="388" y="376" type="line"/>
      <point x="327" y="376" type="line"/>
    </contour>
    <contour>
      <point x="128" y="492" type="line"/>
      <point x="584" y="492" type="line"/>
      <point x="584" y="528" type="line"/>
      <point x="128" y="528" type="line"/>
    </contour>
    <contour>
      <point x="327" y="630" type="line"/>
      <point x="388" y="630" type="line"/>
      <point x="388" y="737" type="line"/>
      <point x="327" y="737" type="line"/>
    </contour>
  </outline>
</glyph>
<glyph name="lslash" format="1">
  <advance width="445"/>
  <unicode hex="0142"/>
  <outline>
    <contour>
      <point x="53" y="460" type="line"/>
      <point x="393" y="679" type="line"/>
      <point x="393" y="727" type="line"/>
      <point x="52" y="506" type="line"/>
    </contour>
    <component base="l"/>
  </outline>
</glyph>
<glyph name="OE" format="1">
  <advance width="2059"/>
  <unicode hex="0152"/>
  <outline>
    <contour>
      <point x="836" y="1152" type="line"/>
      <point x="419" y="1152"/>
      <point x="164" y="935"/>
      <point x="163" y="569" type="curve" smooth="yes"/>
      <point x="164" y="212"/>
      <point x="419" y="0"/>
      <point x="836" y="0" type="curve" smooth="yes"/>
      <point x="1861" y="0" type="line"/>
      <point x="1861" y="395" type="line"/>
      <point x="1805" y="395" type="line"/>
      <point x="1805" y="52" type="line"/>
      <point x="1097" y="52" type="line"/>
      <point x="1097" y="537" type="line"/>
      <point x="1565" y="537" type="line"/>
      <point x="1565" y="343" type="line"/>
      <point x="1618" y="343" type="line"/>
      <point x="1618" y="759" type="line"/>
      <point x="1565" y="759" type="line"/>
      <point x="1565" y="590" type="line"/>
      <point x="1098" y="590" type="line"/>
      <point x="1098" y="1100" type="line"/>
      <point x="1776" y="1100" type="line"/>
      <point x="1776" y="782" type="line"/>
      <point x="1831" y="782" type="line"/>
      <point x="1831" y="1152" type="line"/>
    </contour>
    <contour>
      <point x="1046" y="52" type="line"/>
      <point x="817" y="52" type="line" smooth="yes"/>
      <point x="443" y="51"/>
      <point x="210" y="250"/>
      <point x="210" y="570" type="curve"/>
      <point x="210" y="893"/>
      <point x="448" y="1091"/>
      <point x="820" y="1092" type="curve" smooth="yes"/>
      <point x="1046" y="1092" type="line"/>
    </contour>
  </outline>
</glyph>
<glyph name="circumflex" format="1">
  <advance width="347"/>
  <unicode hex="02C6"/>
  <outline>
    <contour>
      <point x="159" y="1203" type="line"/>
      <point x="23" y="930" type="line"/>
      <point x="61" y="930" type="line"/>
      <point x="171" y="1152" type="line"/>
      <point x="279" y="930" type="line"/>
      <point x="315" y="930" type="line"/>
      <point x="182" y="1203" type="line"/>
    </contour>
    <contour>
      <point x="178" y="804" type="move" name="_top"/>
    </contour>
  </outline>
</glyph>
<glyph name="dotaccent" format="1">
  <advance width="496"/>
  <unicode hex="02D9"/>
  <outline>
    <contour>
      <point x="223" y="1106"/>
      <point x="203" y="1087"/>
      <point x="203" y="1061" type="curve" smooth="yes"/>
      <point x="203" y="1034"/>
      <point x="223" y="1015"/>
      <point x="251" y="1015" type="curve" smooth="yes"/>
      <point x="281" y="1015"/>
      <point x="302" y="1034"/>
      <point x="302" y="1061" type="curve" smooth="yes"/>
      <point x="302" y="1087"/>
      <point x="281" y="1106"/>
      <point x="251" y="1106" type="curve"/>
    </contour>
    <contour>
      <point x="251" y="804" type="move" name="_top"/>
    </contour>
  </outline>
</glyph>
<glyph name="ring" format="1">
  <advance width="317"/>
  <unicode hex="02DA"/>
  <outline>
    <contour>
      <point x="156" y="887" type="curve" smooth="yes"/>
      <point x="227" y="887"/>
      <point x="268" y="928"/>
      <point x="268" y="999" type="curve" smooth="yes"/>
      <point x="268" y="1068"/>
      <point x="226" y="1108"/>
      <point x="155" y="1108" type="curve" smooth="yes"/>
      <point x="84" y="1108"/>
      <point x="42" y="1068"/>
      <point x="41" y="999" type="curve" smooth="yes"/>
      <point x="42" y="928"/>
      <point x="84" y="887"/>
    </contour>
    <contour>
      <point x="156" y="914" type="curve"/>
      <point x="105" y="914"/>
      <point x="74" y="945"/>
      <point x="74" y="999" type="curve" smooth="yes"/>
      <point x="74" y="1050"/>
      <point x="105" y="1080"/>
      <point x="156" y="1080" type="curve" smooth="yes"/>
      <point x="206" y="1080"/>
      <point x="236" y="1050"/>
      <point x="236" y="999" type="curve" smooth="yes"/>
      <point x="236" y="945"/>
      <point x="206" y="914"/>
    </contour>
    <contour>
      <point x="155" y="804" type="move" name="_top"/>
    </contour>
  </outline>
</glyph>
<glyph name="ogonek" format="1">
  <advance width="390"/>
  <unicode hex="02DB"/>
  <outline>
    <contour>
      <point x="232" y="0" type="line"/>
      <point x="157" y="-57"/>
      <point x="109" y="-133"/>
      <point x="109" y="-199" type="curve" smooth="yes"/>
      <point x="109" y="-305"/>
      <point x="182" y="-350"/>
      <point x="264" y="-350" type="curve" smooth="yes"/>
      <point x="305" y="-350"/>
      <point x="347" y="-339"/>
      <point x="385" y="-320" type="curve"/>
      <point x="385" y="-285" type="line"/>
      <point x="349" y="-303"/>
      <point x="312" y="-312"/>
      <point x="278" y="-312" type="curve" smooth="yes"/>
      <point x="210" y="-312"/>
      <point x="156" y="-275"/>
      <point x="156" y="-194" type="curve" smooth="yes"/>
      <point x="156" y="-137"/>
      <point x="199" y="-57"/>
      <point x="263" y="0" type="curve"/>
    </contour>
    <contour>
      <point x="231" y="0" type="move" name="_ogonek"/>
    </contour>
  </outline>
</glyph>
<glyph name="pi" format="1">
  <advance width="1041"/>
  <unicode hex="03C0"/>
  <outline>
    <contour>
      <point x="273" y="804" type="line" smooth="yes"/>
      <point x="174" y="804"/>
      <point x="150" y="723"/>
      <point x="150" y="636" type="curve"/>
      <point x="183" y="636" type="line"/>
      <point x="183" y="739"/>
      <point x="220" y="770"/>
      <point x="272" y="770" type="curve" smooth="yes"/>
      <point x="369" y="770" type="line"/>
      <point x="291" y="237" type="line" smooth="yes"/>
      <point x="271" y="103"/>
      <point x="255" y="30"/>
      <point x="99" y="30" type="curve"/>
      <point x="99" y="-4" type="line"/>
      <point x="288" y="-4"/>
      <point x="321" y="58"/>
      <point x="342" y="237" type="curve" smooth="yes"/>
      <point x="405" y="770" type="line"/>
      <point x="754" y="770" type="line"/>
      <point x="692" y="553"/>
      <point x="661" y="378"/>
      <point x="661" y="250" type="curve" smooth="yes"/>
      <point x="661" y="79"/>
      <point x="716" y="-10"/>
      <point x="822" y="-10" type="curve" smooth="yes"/>
      <point x="847" y="-10"/>
      <point x="884" y="-3"/>
      <point x="917" y="9" type="curve"/>
      <point x="917" y="40" type="line"/>
      <point x="889" y="31"/>
      <point x="865" y="26"/>
      <point x="843" y="26" type="curve" smooth="yes"/>
      <point x="746" y="26"/>
      <point x="707" y="114"/>
      <point x="707" y="259" type="curve" smooth="yes"/>
      <point x="707" y="365"/>
      <point x="730" y="533"/>
      <point x="789" y="770" type="curve"/>
      <point x="939" y="770" type="line"/>
      <point x="939" y="804" type="line"/>
    </contour>
  </outline>
</glyph>
<glyph name="quoteright" format="1">
  <advance width="409"/>
  <unicode hex="2019"/>
  <outline>
    <contour>
      <point x="174" y="1030" type="line"/>
      <point x="255" y="1031"/>
      <point x="278" y="1106"/>
      <point x="278" y="1179" type="curve" smooth="yes"/>
      <point x="278" y="1266" type="line"/>
      <point x="188" y="1266" type="line"/>
      <point x="188" y="1183" type="line"/>
      <point x="229" y="1183" type="line"/>
      <point x="229" y="1105"/>
      <point x="234" y="1080"/>
      <point x="174" y="1058" type="curve"/>
    </contour>
  </outline>
</glyph>
<glyph name="quotesinglbase" format="1">
  <advance width="403"/>
  <unicode hex="201A"/>
  <outline>
    <contour>
      <point x="180" y="-157" type="line"/>
      <point x="261" y="-156"/>
      <point x="283" y="-81"/>
      <point x="282" y="-8" type="curve" smooth="yes"/>
      <point x="282" y="78" type="line"/>
      <point x="193" y="78" type="line"/>
      <point x="193" y="-6" type="line"/>
      <point x="235" y="-6" type="line"/>
      <point x="235" y="-83"/>
      <point x="239" y="-107"/>
      <point x="180" y="-130" type="curve"/>
    </contour>
  </outline>
</glyph>
<glyph name="bullet" format="1">
  <advance width="768"/>
  <unicode hex="2022"/>
  <outline>
    <contour>
      <point x="384" y="472" type="curve" smooth="yes"/>
      <point x="527" y="472"/>
      <point x="641" y="582"/>
      <point x="641" y="719" type="curve" smooth="yes"/>
      <point x="641" y="858"/>
      <point x="527" y="965"/>
      <point x="384" y="965" type="curve" smooth="yes"/>
      <point x="240" y="965"/>
      <point x="128" y="857"/>
      <point x="128" y="719" type="curve" smooth="yes"/>
      <point x="128" y="584"/>
      <point x="240" y="472"/>
    </contour>
  </outline>
</glyph>
<glyph name="fraction" format="1">
  <advance width="337"/>
  <unicode hex="2044"/>
  <outline>
    <contour>
      <point x="-35" y="-25" type="line"/>
      <point x="19" y="-25" type="line"/>
      <point x="360" y="1289" type="line"/>
      <point x="312" y="1289" type="line"/>
    </contour>
  </outline>
</glyph>
<glyph name="foursuperior" format="1">
  <advance width="718"/>
  <unicode hex="2074"/>
  <outline>
    <contour>
      <point x="379" y="1321" type="line"/>
      <point x="19" y="752" type="line"/>
      <point x="31" y="722" type="line"/>
      <point x="400" y="722" type="line"/>
      <point x="400" y="497" type="line"/>
      <point x="278" y="497" type="line"/>
      <point x="278" y="455" type="line"/>
      <point x="563" y="455" type="line"/>
      <point x="563" y="497" type="line"/>
      <point x="438" y="497" type="line"/>
      <point x="438" y="722" type="line"/>
      <point x="646" y="722" type="line"/>
      <point x="646" y="760" type="line"/>
      <point x="438" y="760" type="line"/>
      <point x="438" y="1321" type="line"/>
    </contour>
    <contour>
      <point x="400" y="760" type="line"/>
      <point x="82" y="760" type="line"/>
      <point x="400" y="1270" type="line"/>
    </contour>
  </outline>
</glyph>
<glyph name="partialdiff" format="1">
  <advance width="1018"/>
  <unicode hex="2202"/>
  <outline>
    <contour>
      <point x="401" y="-22" type="curve" smooth="yes"/>
      <point x="735" y="-22"/>
      <point x="843" y="335"/>
      <point x="843" y="626" type="curve" smooth="yes"/>
      <point x="843" y="954"/>
      <point x="729" y="1166"/>
      <point x="496" y="1166" type="curve" smooth="yes"/>
      <point x="357" y="1166"/>
      <point x="266" y="1104"/>
      <point x="266" y="1020" type="curve" smooth="yes"/>
      <point x="266" y="978"/>
      <point x="284" y="971"/>
      <point x="300" y="971" type="curve"/>
      <point x="300" y="1095"/>
      <point x="392" y="1132"/>
      <point x="498" y="1132" type="curve" smooth="yes"/>
      <point x="675" y="1132"/>
      <point x="816" y="1016"/>
      <point x="816" y="531" type="curve"/>
      <point x="826" y="536" type="line"/>
      <point x="812" y="607"/>
      <point x="716" y="694"/>
      <point x="561" y="694" type="curve" smooth="yes"/>
      <point x="259" y="694"/>
      <point x="140" y="410"/>
      <point x="140" y="236" type="curve" smooth="yes"/>
      <point x="140" y="100"/>
      <point x="205" y="-22"/>
    </contour>
    <contour>
      <point x="410" y="9" type="curve" smooth="yes"/>
      <point x="232" y="9"/>
      <point x="180" y="120"/>
      <point x="180" y="236" type="curve" smooth="yes"/>
      <point x="180" y="378"/>
      <point x="272" y="661"/>
      <point x="560" y="661" type="curve" smooth="yes"/>
      <point x="702" y="661"/>
      <point x="786" y="600"/>
      <point x="809" y="507" type="curve"/>
      <point x="785" y="259"/>
      <point x="649" y="9"/>
    </contour>
  </outline>
</glyph>
<glyph name="integral" format="1">
  <advance width="600"/>
  <unicode hex="222B"/>
  <outline>
    <contour>
      <point x="548" y="1244"/>
      <point x="483" y="1182"/>
      <point x="455" y="1078" type="curve" smooth="yes"/>
      <point x="177" y="60" type="line" smooth="yes"/>
      <point x="148" y="-46"/>
      <point x="106" y="-58"/>
      <point x="15" y="-58" type="curve"/>
      <point x="15" y="-86" type="line"/>
      <point x="107" y="-86"/>
      <point x="178" y="-86"/>
      <point x="218" y="60" type="curve" smooth="yes"/>
      <point x="499" y="1080" type="line" smooth="yes"/>
      <point x="521" y="1162"/>
      <point x="574" y="1209"/>
      <point x="650" y="1209" type="curve" smooth="yes"/>
      <point x="680" y="1209"/>
      <point x="714" y="1202"/>
      <point x="750" y="1187" type="curve"/>
      <point x="757" y="1219" type="line"/>
      <point x="719" y="1236"/>
      <point x="677" y="1244"/>
      <point x="643" y="1244" type="curve" smooth="yes"/>
    </contour>
  </outline>
</glyph>
<glyph name="approxequal" format="1">
  <advance width="600"/>
  <unicode hex="2248"/>
  <outline>
    <contour>
      <point x="85" y="723"/>
      <point x="41" y="677"/>
      <point x="33" y="594" type="curve"/>
      <point x="71" y="594" type="line"/>
      <point x="82" y="640"/>
      <point x="103" y="665"/>
      <point x="130" y="665" type="curve" smooth="yes"/>
      <point x="221" y="665"/>
      <point x="317" y="588"/>
      <point x="444" y="588" type="curve" smooth="yes"/>
      <point x="515" y="588"/>
      <point x="560" y="635"/>
      <point x="569" y="719" type="curve"/>
      <point x="532" y="719" type="line"/>
      <point x="514" y="672"/>
      <point x="488" y="646"/>
      <point x="458" y="646" type="curve" smooth="yes"/>
      <point x="370" y="646"/>
      <point x="272" y="723"/>
      <point x="156" y="723" type="curve" smooth="yes"/>
    </contour>
    <contour>
      <point x="74" y="524"/>
      <point x="30" y="478"/>
      <point x="22" y="395" type="curve"/>
      <point x="60" y="395" type="line"/>
      <point x="72" y="441"/>
      <point x="93" y="466"/>
      <point x="119" y="466" type="curve" smooth="yes"/>
      <point x="210" y="466"/>
      <point x="306" y="389"/>
      <point x="434" y="389" type="curve" smooth="yes"/>
      <point x="506" y="389"/>
      <point x="550" y="436"/>
      <point x="558" y="520" type="curve"/>
      <point x="521" y="520" type="line"/>
      <point x="505" y="473"/>
      <point x="479" y="447"/>
      <point x="447" y="447" type="curve" smooth="yes"/>
      <point x="359" y="447"/>
      <point x="261" y="524"/>
      <point x="146" y="524" type="curve" smooth="yes"/>
    </contour>
  </outline>
</glyph>
<glyph name="lc_ascender_stem_1" format="1">
  <advance width="1378"/>
  <outline>
    <contour>
      <point x="94" y="0" type="line"/>
      <point x="278" y="0" type="line"/>
      <point x="278" y="1174" type="line"/>
      <point x="102" y="1174" type="line"/>
      <point x="102" y="1140" type="line"/>
      <point x="234" y="1140" type="line"/>
      <point x="234" y="34" type="line"/>
      <point x="94" y="34" type="line"/>
    </contour>
  </outline>
</glyph>
<glyph name="lc_bowl_left" format="1">
  <advance width="1179"/>
  <outline>
    <contour>
      <point x="564" y="-22" type="curve" smooth="yes"/>
      <point x="679" y="-22"/>
      <point x="812" y="35"/>
      <point x="892" y="116" type="curve"/>
      <point x="892" y="154" type="line"/>
      <point x="809" y="71"/>
      <point x="676" y="12"/>
      <point x="564" y="12" type="curve" smooth="yes"/>
      <point x="339" y="12"/>
      <point x="179" y="172"/>
      <point x="179" y="397" type="curve" smooth="yes"/>
      <point x="179" y="628"/>
      <point x="328" y="792"/>
      <point x="538" y="792" type="curve" smooth="yes"/>
      <point x="660" y="792"/>
      <point x="803" y="736"/>
      <point x="892" y="656" type="curve"/>
      <point x="892" y="689" type="line"/>
      <point x="806" y="769"/>
      <point x="662" y="826"/>
      <point x="538" y="826" type="curve" smooth="yes"/>
      <point x="300" y="826"/>
      <point x="134" y="648"/>
      <point x="137" y="397" type="curve" smooth="yes"/>
      <point x="140" y="152"/>
      <point x="317" y="-22"/>
    </contour>
  </outline>
</glyph>
